{
  "accessors": [
    {
      "bufferView": 2,
      "componentType": 5126,
      "count": 104,
      "max": [
        0.090920001268386841,
        0.090920001268386841,
        0.23570999503135681
      ],
      "min": [
        -0.090920001268386841,
        -0.090920001268386841,
        -0.077069997787475586
      ],
      "type": "VEC3"
    },
    {
      "bufferView": 2,
      "byteOffset": 1248,
      "componentType": 5126,
      "count": 104,
      "max": [
        0.99747568368911743,
        0.99747568368911743,
        1
      ],
      "min": [
        -0.99747568368911743,
        -0.99747568368911743,
        -1
      ],
      "type": "VEC3"
    },
    {
      "bufferView": 3,
      "componentType": 5126,
      "count": 104,
      "max": [
        1,
        0.99998593330383301,
        0.9984060525894165,
        1
      ],
      "min": [
        -0.99999904632568359,
        -1,
        -0.9984060525894165,
        1
      ],
      "type": "VEC4"
    },
    {
      "bufferView": 1,
      "componentType": 5126,
      "count": 104,
      "max": [
        0.97886002063751221,
        0.96038001775741577
      ],
      "min": [
        0.021139999851584435,
        0.074199996888637543
      ],
      "type": "VEC2"
    },
    {
      "bufferView": 0,
      "componentType": 5125,
      "count": 156,
      "max": [
        103
      ],
      "min": [
        0
      ],
      "type": "SCALAR"
    }
  ],
  "asset": {
    "extras": {
      "author": "Inuciian (https://sketchfab.com/Inuciian)",
      "license": "CC-BY-4.0 (http://creativecommons.org/licenses/by/4.0/)",
      "source": "https://sketchfab.com/models/0ef34146302c43c889780f311e477e62",
      "title": "Potion"
    },
    "generator": "Sketchfab-3.18.7",
    "version": "2.0"
  },
  "bufferViews": [
    {
      "buffer": 0,
      "byteLength": 624,
      "byteOffset": 0,
      "name": "floatBufferViews",
      "target": 34963
    },
    {
      "buffer": 0,
      "byteLength": 832,
      "byteOffset": 624,
      "byteStride": 8,
      "name": "floatBufferViews",
      "target": 34962
    },
    {
      "buffer": 0,
      "byteLength": 2496,
      "byteOffset": 1456,
      "byteStride": 12,
      "name": "floatBufferViews",
      "target": 34962
    },
    {
      "buffer": 0,
      "byteLength": 1664,
      "byteOffset": 3952,
      "byteStride": 16,
      "name": "floatBufferViews",
      "target": 34962
    }
  ],
  "buffers": [
    {
      "byteLength": 5616,
      "uri": "scene.bin"
    }
  ],
  "images": [
    {
      "uri": "textures/bottle_2_mat_baseColor.png"
    }
  ],
  "materials": [
    {
      "doubleSided": true,
      "emissiveFactor": [
        0,
        0,
        0
      ],
      "name": "bottle_2_mat",
      "pbrMetallicRoughness": {
        "baseColorFactor": [
          1,
          1,
          1,
          1
        ],
        "baseColorTexture": {
          "index": 0,
          "texCoord": 0
        },
        "metallicFactor": 0,
        "roughnessFactor": 0.33000000000000002
      }
    }
  ],
  "meshes": [
    {
      "name": "bottle_2_0",
      "primitives": [
        {
          "attributes": {
            "NORMAL": 1,
            "POSITION": 0,
            "TANGENT": 2,
            "TEXCOORD_0": 3
          },
          "indices": 4,
          "material": 0,
          "mode": 4
        }
      ]
    }
  ],
  "nodes": [
    {
      "children": [
        1
      ],
      "name": "RootNode (gltf orientation matrix)",
      "rotation": [
        -0.70710678118654746,
        -0,
        -0,
        0.70710678118654757
      ]
    },
    {
      "children": [
        2
      ],
      "name": "RootNode (model correction matrix)"
    },
    {
      "children": [
        3
      ],
      "name": "Root"
    },
    {
      "children": [
        4
      ],
      "matrix": [
        1,
        0,
        0,
        0,
        0,
        1,
        0,
        0,
        0,
        0,
        1,
        0,
        -3.59395,
        -1.8614899999999999,
        0.47309000000000001,
        1
      ],
      "name": "bottle_2"
    },
    {
      "mesh": 0,
      "name": "bottle_2_0"
    }
  ],
  "samplers": [
    {
      "magFilter": 9729,
      "minFilter": 9987,
      "wrapS": 10497,
      "wrapT": 10497
    }
  ],
  "scene": 0,
  "scenes": [
    {
      "name": "OSG_Scene",
      "nodes": [
        0
      ]
    }
  ],
  "textures": [
    {
      "sampler": 0,
      "source": 0
    }
  ]
}

